<svg width="48" height="48" viewBox="0 0 48 48" fill="none" xmlns="http://www.w3.org/2000/svg">
<path d="M37.9689 34.32L39.6489 35.28L39.6977 35.1844C42.0489 31.92 43.2977 28.0333 43.2977 23.9533C43.3464 18.7223 41.3777 13.8244 37.7287 10.1778C34.08 6.48032 29.1843 4.41589 23.9998 4.41589C13.2953 4.41589 4.60873 13.1514 4.60873 23.8559C4.60873 34.5604 13.2958 43.2489 23.9998 43.2489C25.871 43.2489 27.6485 43.0089 29.3287 42.4801L29.4244 42.4313L29.04 40.5113L28.8956 40.5601C27.2644 41.0401 25.5844 41.3289 23.9046 41.3289C14.3046 41.3289 6.48009 33.5044 6.48009 23.9044C6.48009 14.3044 14.3046 6.47989 23.9046 6.47989C33.5046 6.47989 41.329 14.3044 41.329 23.9044C41.329 27.6 40.1778 31.1533 37.969 34.2244L37.9689 34.32Z" fill="#0092EE"/>
<path d="M40.3689 7.67999C36.0002 3.26438 30.1915 0.864471 24 0.864471C21.84 0.864471 19.7756 1.15322 17.809 1.72886L17.7133 1.7776L18.049 3.55322L18.1933 3.50447C20.1133 2.9757 22.0821 2.68886 24.0023 2.68886C35.7623 2.68886 45.3623 12.2399 45.3623 24.0489C45.3604 35.8559 35.7604 45.3599 24.0004 45.3599C12.2404 45.3111 2.64037 35.7109 2.64037 23.9999C2.64037 19.5355 3.98475 15.3109 6.57598 11.6644L6.67161 11.5687L5.08722 10.6575L5.03848 10.7531C2.30473 14.5913 0.815964 19.2002 0.815964 24.0487C0.815964 36.7687 11.1849 47.1376 23.9049 47.1376C36.6739 47.1376 47.0404 36.7687 47.0404 24.0487C47.1361 17.8557 44.7361 12.0487 40.3694 7.6797L40.3689 7.67999Z" fill="#0092EE"/>
<path d="M34.8 13.7755H30.8156C30.6712 13.7755 30.5756 13.8711 30.5756 14.0155V34.1755C30.5756 34.3199 30.6712 34.4155 30.8156 34.4155H34.8C34.9444 34.4155 35.04 34.3199 35.04 34.1755V14.0155C35.04 13.9199 34.9444 13.7755 34.8 13.7755ZM31.1512 16.6086H34.4156V17.6174H31.1512V16.6086ZM34.4156 31.7286H31.1512V30.7686H34.4156V31.7286Z" fill="black"/>
<path d="M18.3845 14.3045L14.4001 13.8713C14.2557 13.8713 14.1601 13.967 14.1601 14.1113L12.0001 33.7424C12.0001 33.8868 12.0957 33.9824 12.1913 34.0311L16.1757 34.4624C16.3201 34.4624 16.4157 34.3668 16.4157 34.2224L18.5757 14.5913C18.5757 14.4488 18.4801 14.3513 18.3845 14.3045ZM16.1289 31.5355L12.8645 31.1511L12.9601 30.1424L16.2245 30.5267L16.1289 31.5355ZM17.6645 17.231L17.6157 17.7598L14.3513 17.3754L14.447 16.3666L17.7114 16.751L17.6645 17.231Z" fill="black"/>
<path d="M29.329 15.071H25.3446C25.2002 15.071 25.1046 15.1666 25.1046 15.311V34.1755C25.1046 34.3199 25.2002 34.4155 25.3446 34.4155H29.329C29.4733 34.4155 29.569 34.3199 29.569 34.1755V15.311C29.569 15.1685 29.4715 15.071 29.329 15.071ZM25.6802 16.751H28.9446V17.471H25.6802V16.751ZM28.9914 32.351H25.727V32.0154L25.7289 31.6798H28.9933L28.9914 32.351Z" fill="black"/>
<path d="M23.951 15.071H19.9667C19.8223 15.071 19.7267 15.1666 19.7267 15.311V34.1755C19.7267 34.3199 19.8223 34.4155 19.9667 34.4155H23.951C24.0954 34.4155 24.191 34.3199 24.191 34.1755V15.311C24.191 15.1685 24.0485 15.071 23.951 15.071ZM23.5685 32.351H20.3042V31.6798H23.5685V32.351ZM23.5685 17.1355V17.4711H20.3042V16.7511H23.5685V17.1355Z" fill="black"/>
</svg>
