<svg width="42" height="42" viewBox="0 0 42 42" fill="none" xmlns="http://www.w3.org/2000/svg">
<path d="M3.1615 4.80688V31.5655H17.5973L16.4489 36.2674H14.5261V37.1943H27.4789V36.2674H25.5528L24.406 31.5655H38.8384V4.80688H3.1615ZM4.09008 5.73219H37.9131V25.4247H4.09008V5.73219ZM18.5524 31.5655H23.4529L24.5997 36.2674H17.4055L18.4375 32.0347L18.5524 31.5655Z" fill="#0092EE"/>
<path d="M16.7058 20.4H22.7715C23.3822 20.3995 23.8768 19.9045 23.8772 19.2942V18.8859L25.3679 19.8933H25.3683C25.5708 20.0306 25.8329 20.0442 26.049 19.9294C26.2651 19.8145 26.4001 19.59 26.4001 19.3453V15.2039C26.4001 14.9629 26.2688 14.7412 26.0579 14.6245C25.8469 14.5082 25.5896 14.5157 25.3857 14.6442L23.8773 15.5957V15.2859C23.8768 14.6756 23.3823 14.1811 22.7715 14.1801H16.7059C16.0956 14.1811 15.6006 14.6756 15.6001 15.2859V19.2941C15.6006 19.9044 16.0956 20.3994 16.7059 20.3999L16.7058 20.4ZM25.6163 15.0098C25.6866 14.9653 25.7761 14.9625 25.8493 15.0028C25.9224 15.0436 25.9679 15.1204 25.9679 15.2039V19.3453C25.9679 19.4302 25.921 19.508 25.846 19.5478C25.771 19.5877 25.6805 19.583 25.6102 19.5356L23.8777 18.3652L23.8772 16.1063L25.6163 15.0098ZM16.0323 15.2859C16.0323 14.9142 16.3337 14.6128 16.7059 14.6123H22.7715C23.1437 14.6128 23.4451 14.9142 23.4456 15.2859V19.2942C23.4451 19.6664 23.1437 19.9673 22.7715 19.9678H16.7059C16.3337 19.9673 16.0323 19.6664 16.0323 19.2942V15.2859ZM17.6058 13.7724C18.1444 13.7724 18.6296 13.448 18.8358 12.9506C19.0416 12.4533 18.9277 11.8805 18.5471 11.4998C18.1665 11.1192 17.5936 11.0053 17.0963 11.2111C16.5989 11.4173 16.2746 11.9025 16.2746 12.4411C16.2755 13.1761 16.8708 13.7714 17.6058 13.7724L17.6058 13.7724ZM17.6058 11.542C17.9696 11.542 18.2972 11.7609 18.4365 12.097C18.5757 12.4331 18.4988 12.8198 18.2415 13.0767C17.9846 13.3341 17.5979 13.411 17.2618 13.2717C16.9257 13.1325 16.7068 12.8049 16.7068 12.4411C16.7072 11.9447 17.1094 11.5425 17.6058 11.542ZM21.1913 13.7724C21.7444 13.7724 22.275 13.5525 22.6665 13.1611C23.0574 12.7702 23.2772 12.2395 23.2772 11.6859C23.2772 11.1328 23.0574 10.6022 22.6665 10.2113C22.2751 9.81986 21.7444 9.60001 21.1913 9.60001C20.6377 9.60001 20.1071 9.81985 19.7161 10.2113C19.3247 10.6022 19.1049 11.1328 19.1049 11.6859C19.1058 12.2391 19.3257 12.7697 19.7166 13.1606C20.108 13.5516 20.6382 13.7719 21.1913 13.7723L21.1913 13.7724ZM21.1913 10.0322C21.8602 10.0322 22.4635 10.4349 22.7194 11.0531C22.9752 11.6714 22.8338 12.383 22.3608 12.8559C21.8878 13.3289 21.1763 13.4704 20.558 13.2145C19.9402 12.9581 19.5371 12.3553 19.5371 11.6859C19.538 10.7728 20.2782 10.0332 21.1913 10.0322L21.1913 10.0322Z" fill="black"/>
</svg>
