<svg width="70" height="71" viewBox="0 0 70 71" fill="none" xmlns="http://www.w3.org/2000/svg">
<path d="M55.2625 42.1896C54.8165 42.0241 54.3219 42.2546 54.157 42.6994C51.9894 48.6335 47.2541 53.2576 41.284 55.2724C35.3163 57.2875 28.757 56.4712 23.4563 53.0594C18.1561 49.6448 14.6884 44.0037 14.0262 37.7196L17.5452 41.1911C17.8858 41.5274 18.4317 41.5247 18.7695 41.1856C19.1074 40.8466 19.1047 40.2961 18.7641 39.9571L13.6613 34.8638C13.6235 34.834 13.5829 34.8069 13.5424 34.7852C13.4883 34.7418 13.4315 34.7038 13.3694 34.6712H13.2397C13.1721 34.6577 13.1072 34.6523 13.0396 34.655H12.891H12.8937C12.8045 34.6685 12.7207 34.6957 12.6423 34.7336L12.5721 34.777C12.4937 34.8285 12.4234 34.8936 12.364 34.9669L8.19631 40.9307C8.01522 41.1097 7.92062 41.3592 7.93955 41.6142C7.95847 41.8718 8.0909 42.1051 8.29631 42.2542C8.50442 42.4034 8.76659 42.4549 9.01527 42.3898C9.26123 42.3275 9.46934 42.1593 9.58016 41.9288L12.2884 38.0668C13.0614 44.8443 16.8479 50.9085 22.5916 54.5591C28.335 58.2122 35.4162 59.0612 41.8544 56.8671C48.2924 54.6757 53.3982 49.6776 55.7383 43.2741C55.8896 42.8429 55.6815 42.3683 55.2626 42.1893L55.2625 42.1896Z" fill="#006FB6"/>
<path d="M59.744 29.1167L57.0034 33.0059C56.2331 26.1524 52.3843 20.0288 46.5521 16.381C40.7195 12.7332 33.5462 11.9629 27.0762 14.2872C20.6057 16.6115 15.5517 21.778 13.3515 28.3113C13.2001 28.767 13.4433 29.2606 13.8974 29.4124C14.3515 29.567 14.8434 29.3202 14.9947 28.8673C17.0299 22.8247 21.7111 18.0515 27.6975 15.9117C33.6868 13.7719 40.3193 14.5042 45.701 17.897C51.0849 21.2898 54.6204 26.9687 55.2985 33.3097L51.8389 29.8382C51.5011 29.4992 50.9525 29.5019 50.6146 29.8436C50.2795 30.1826 50.2822 30.7331 50.62 31.0695L55.6877 36.1384C55.8472 36.2984 56.0607 36.3879 56.285 36.3906H56.3634C56.4175 36.377 56.4688 36.3608 56.5175 36.3391H56.6391C56.7094 36.3038 56.7715 36.2604 56.831 36.2089L56.9094 36.1384H56.9067C56.9391 36.114 56.9661 36.0896 56.9931 36.0597L61.1365 30.1501C61.4203 29.765 61.3392 29.2199 60.9554 28.9351C60.5716 28.6503 60.0284 28.7317 59.7446 29.1168L59.744 29.1167Z" fill="#006FB6"/>
</svg>
