<svg width="71" height="71" viewBox="0 0 71 71" fill="none" xmlns="http://www.w3.org/2000/svg">
<path d="M56.0328 42.1976C55.5869 42.0322 55.0923 42.2627 54.9274 42.7075C52.7598 48.6416 48.0245 53.2656 42.0544 55.2805C36.0867 57.2956 29.5273 56.4793 24.2266 53.0674C18.9264 49.6529 15.4587 44.0117 14.7966 37.7276L18.3156 41.1991C18.6561 41.5354 19.202 41.5327 19.5399 41.1937C19.8778 40.8547 19.875 40.3042 19.5345 39.9651L14.4316 34.8719C14.3938 34.842 14.3533 34.8149 14.3127 34.7932C14.2587 34.7498 14.2019 34.7118 14.1397 34.6793H14.01C13.9424 34.6657 13.8776 34.6603 13.81 34.663H13.6614H13.6641C13.5749 34.6766 13.4911 34.7037 13.4127 34.7417L13.3424 34.7851C13.264 34.8366 13.1938 34.9017 13.1343 34.9749L8.96666 40.9388C8.78558 41.1178 8.69098 41.3673 8.7099 41.6222C8.72882 41.8799 8.86126 42.1131 9.06666 42.2623C9.27478 42.4115 9.53695 42.463 9.78563 42.3979C10.0316 42.3355 10.2397 42.1674 10.3505 41.9368L13.0587 38.0748C13.8317 44.8523 17.6183 50.9165 23.362 54.5671C29.1054 58.2203 36.1865 59.0692 42.6247 56.8751C49.0628 54.6838 54.1686 49.6857 56.5086 43.2822C56.66 42.851 56.4519 42.3763 56.0329 42.1973L56.0328 42.1976Z" fill="#006FB6"/>
<path d="M60.5144 29.1248L57.7738 33.0139C57.0035 26.1605 53.1547 20.0368 47.3225 16.389C41.4899 12.7413 34.3166 11.971 27.8466 14.2953C21.3761 16.6196 16.3221 21.7861 14.1218 28.3194C13.9705 28.775 14.2137 29.2686 14.6678 29.4205C15.1219 29.5751 15.6138 29.3283 15.7651 28.8753C17.8003 22.8328 22.4815 18.0596 28.4679 15.9198C34.4572 13.7799 41.0897 14.5122 46.4714 17.905C51.8553 21.2979 55.3908 26.9767 56.0689 33.3177L52.6093 29.8462C52.2715 29.5072 51.7229 29.5099 51.385 29.8517C51.0498 30.1907 51.0526 30.7412 51.3904 31.0775L56.4581 36.1464C56.6176 36.3064 56.8311 36.396 57.0554 36.3987H57.1338C57.1878 36.3851 57.2392 36.3688 57.2878 36.3471H57.4095C57.4797 36.3119 57.5419 36.2685 57.6014 36.2169L57.6797 36.1464H57.677C57.7095 36.122 57.7365 36.0976 57.7635 36.0678L61.9069 30.1581C62.1907 29.773 62.1096 29.2279 61.7258 28.9431C61.342 28.6583 60.7988 28.7397 60.515 29.1248L60.5144 29.1248Z" fill="#006FB6"/>
<path d="M31.1784 32.3488H28.2077V40.588H26.9953V32.3488H24.031V31.3458H31.1784V32.3488ZM39.0559 31.3458V37.63C39.0516 38.5017 38.7766 39.2148 38.2307 39.7692C37.689 40.3235 36.9527 40.6346 36.0217 40.7023L35.698 40.715C34.6866 40.715 33.8804 40.442 33.2795 39.8961C32.6786 39.3502 32.3739 38.5991 32.3655 37.6427V31.3458H33.5715V37.6046C33.5715 38.2732 33.7556 38.7937 34.1238 39.1661C34.4919 39.5343 35.0167 39.7184 35.698 39.7184C36.3877 39.7184 36.9146 39.5343 37.2785 39.1661C37.6467 38.798 37.8308 38.2796 37.8308 37.611V31.3458H39.0559ZM46.2033 36.316H42.198V39.5914H46.8508V40.588H40.9792V31.3458H46.7873V32.3488H42.198V35.3195H46.2033V36.316Z" fill="black"/>
</svg>
