<svg xmlns="http://www.w3.org/2000/svg" viewBox="0 0 100 100" width="42" height="42">
	<style>
		tspan { white-space:pre }
		.shp0 { fill: #0092ee } 
		.shp1 { fill: #000000 } 
	</style>
	<path id="Layer" fill-rule="evenodd" class="shp0" d="M59.96 31.55C62.69 31.55 64.93 33.78 64.93 36.52L64.93 60.73L64.92 68.45L56.53 61.4L40.04 61.4C37.3 61.4 35.07 59.18 35.07 56.43L35.07 36.52C35.07 33.78 37.3 31.55 40.04 31.55L59.96 31.55L59.96 31.55ZM63.57 36.52C63.57 34.52 61.95 32.9 59.95 32.9L40.04 32.9C38.04 32.9 36.42 34.52 36.42 36.52L36.42 56.43C36.42 58.43 38.04 60.06 40.04 60.06L57.02 60.06L63.57 65.56L63.58 60.73L63.57 36.52Z" />
	<path id="Layer" class="shp1" d="M49.84 50.39C48.88 50.39 48.22 50.89 48.22 51.64C48.22 52.38 48.87 52.9 49.84 52.9C50.81 52.9 51.49 52.38 51.49 51.64C51.49 50.89 50.81 50.39 49.84 50.39Z" />
	<path id="Layer" class="shp1" d="M49.92 39.46C47.57 39.46 45.92 40.82 45.77 42.93C45.75 43.15 45.92 43.26 46.18 43.26L48.07 43.26C48.34 43.26 48.51 43.15 48.51 42.93C48.61 42.01 49.09 41.47 50.01 41.47C51.03 41.47 51.44 42.09 51.44 42.79C51.44 44.97 48.41 45.16 48.41 48.68L48.41 49.14C48.41 49.34 48.58 49.46 48.85 49.46L50.81 49.46C51.08 49.46 51.25 49.34 51.25 49.14L51.25 48.66C51.25 46.03 54.23 45.7 54.23 42.66C54.23 40.75 52.48 39.46 49.92 39.46L49.92 39.46Z" />
</svg>